{
  "accessors": [
    {
      "bufferView": 2,
      "componentType": 5126,
      "count": 22713,
      "max": [
        13.023957252502441,
        7.374260902404785,
        18.82736587524414
      ],
      "min": [
        -12.881324768066406,
        -8.882957458496094,
        -12.67828369140625
      ],
      "type": "VEC3"
    },
    {
      "bufferView": 2,
      "byteOffset": 272556,
      "componentType": 5126,
      "count": 22713,
      "max": [
        0.9999964833259583,
        0.9999854564666748,
        0.999826192855835
      ],
      "min": [
        -0.9998959302902222,
        -0.9999430179595947,
        -1.0
      ],
      "type": "VEC3"
    },
    {
      "bufferView": 3,
      "componentType": 5126,
      "count": 22713,
      "max": [
        1.0,
        0.9997866749763489,
        0.999963641166687,
        1.0
      ],
      "min": [
        -0.9999628067016602,
        -0.9999911785125732,
        -0.9999680519104004,
        -1.0
      ],
      "type": "VEC4"
    },
    {
      "bufferView": 1,
      "componentType": 5126,
      "count": 22713,
      "max": [
        0.9937000274658203,
        0.9980000257492065
      ],
      "min": [
        0.0020000000949949026,
        0.003650000086054206
      ],
      "type": "VEC2"
    },
    {
      "bufferView": 1,
      "byteOffset": 181704,
      "componentType": 5126,
      "count": 22713,
      "max": [
        0.9937000274658203,
        0.9980000257492065
      ],
      "min": [
        0.0020000000949949026,
        0.003650000086054206
      ],
      "type": "VEC2"
    },
    {
      "bufferView": 1,
      "byteOffset": 363408,
      "componentType": 5126,
      "count": 22713,
      "max": [
        0.9937000274658203,
        0.9980000257492065
      ],
      "min": [
        0.0020000000949949026,
        0.003650000086054206
      ],
      "type": "VEC2"
    },
    {
      "bufferView": 0,
      "componentType": 5125,
      "count": 130800,
      "type": "SCALAR"
    }
  ],
  "asset": {
    "extras": {
      "author": "Francesco Coldesina (https://sketchfab.com/topfrank2013)",
      "license": "CC-BY-4.0 (http://creativecommons.org/licenses/by/4.0/)",
      "source": "https://sketchfab.com/3d-models/ganesh-color-9fc0742d238b4f408d310a676aaa29cf",
      "title": "Ganesh Color"
    },
    "generator": "Sketchfab-12.65.0",
    "version": "2.0"
  },
  "bufferViews": [
    {
      "buffer": 0,
      "byteLength": 523200,
      "name": "floatBufferViews",
      "target": 34963
    },
    {
      "buffer": 0,
      "byteLength": 545112,
      "byteOffset": 523200,
      "byteStride": 8,
      "name": "floatBufferViews",
      "target": 34962
    },
    {
      "buffer": 0,
      "byteLength": 545112,
      "byteOffset": 1068312,
      "byteStride": 12,
      "name": "floatBufferViews",
      "target": 34962
    },
    {
      "buffer": 0,
      "byteLength": 363408,
      "byteOffset": 1613424,
      "byteStride": 16,
      "name": "floatBufferViews",
      "target": 34962
    }
  ],
  "buffers": [
    {
      "byteLength": 1976832,
      "uri": "scene.bin"
    }
  ],
  "images": [
    {
      "uri": "textures/Ganesh_ZB1_LR_baseColor.jpeg"
    },
    {
      "uri": "textures/Ganesh_ZB1_LR_metallicRoughness.png"
    },
    {
      "uri": "textures/Ganesh_ZB1_LR_normal.png"
    }
  ],
  "materials": [
    {
      "doubleSided": true,
      "name": "Ganesh_ZB1_LR",
      "normalTexture": {
        "index": 2
      },
      "pbrMetallicRoughness": {
        "baseColorTexture": {
          "index": 0
        },
        "metallicFactor": 0.0,
        "metallicRoughnessTexture": {
          "index": 1
        }
      }
    }
  ],
  "meshes": [
    {
      "name": "Ganesh_Color_End_LR_Ganesh ZB1 LR_0",
      "primitives": [
        {
          "attributes": {
            "NORMAL": 1,
            "POSITION": 0,
            "TANGENT": 2,
            "TEXCOORD_0": 3,
            "TEXCOORD_1": 4,
            "TEXCOORD_2": 5
          },
          "indices": 6,
          "material": 0,
          "mode": 4
        }
      ]
    }
  ],
  "nodes": [
    {
      "children": [
        1
      ],
      "matrix": [
        1.0,
        0.0,
        0.0,
        0.0,
        0.0,
        2.220446049250313e-16,
        -1.0,
        0.0,
        0.0,
        1.0,
        2.220446049250313e-16,
        0.0,
        0.0,
        0.0,
        0.0,
        1.0
      ],
      "name": "Sketchfab_model"
    },
    {
      "children": [
        2
      ],
      "matrix": [
        1.0,
        0.0,
        0.0,
        0.0,
        0.0,
        0.0,
        1.0,
        0.0,
        0.0,
        -1.0,
        0.0,
        0.0,
        0.0,
        0.0,
        0.0,
        1.0
      ],
      "name": "Ganesh Color.fbx"
    },
    {
      "children": [
        3
      ],
      "name": "RootNode"
    },
    {
      "children": [
        4
      ],
      "matrix": [
        1.0,
        0.0,
        0.0,
        0.0,
        0.0,
        2.220446049250313e-16,
        -1.0,
        0.0,
        0.0,
        1.0,
        2.220446049250313e-16,
        0.0,
        0.0,
        0.0,
        0.0,
        1.0
      ],
      "name": "Ganesh_Color_End_LR"
    },
    {
      "mesh": 0,
      "name": "Ganesh_Color_End_LR_Ganesh ZB1 LR_0"
    }
  ],
  "samplers": [
    {
      "magFilter": 9729,
      "minFilter": 9987,
      "wrapS": 10497,
      "wrapT": 10497
    }
  ],
  "scene": 0,
  "scenes": [
    {
      "name": "Sketchfab_Scene",
      "nodes": [
        0
      ]
    }
  ],
  "textures": [
    {
      "sampler": 0,
      "source": 0
    },
    {
      "sampler": 0,
      "source": 1
    },
    {
      "sampler": 0,
      "source": 2
    }
  ]
}
